<?xml version="1.0" standalone="no"?>
<!DOCTYPE svg PUBLIC "-//W3C//DTD SVG 20010904//EN"
 "http://www.w3.org/TR/2001/REC-SVG-20010904/DTD/svg10.dtd">
<svg version="1.0" xmlns="http://www.w3.org/2000/svg" height="2.3rem" width="2.3rem" fill="#FAFAFA"
 width="204.000000pt" height="192.000000pt" viewBox="0 0 204.000000 192.000000"
 preserveAspectRatio="xMidYMid meet">

<g transform="translate(0.000000,192.000000) scale(0.100000,-0.100000)"
fill="#000000" stroke="none">
<path d="M280 1733 c0 -5 128 -179 285 -388 157 -209 284 -383 282 -387 -1 -4
-105 -118 -232 -254 -126 -136 -256 -276 -288 -311 l-59 -63 65 0 65 0 234
251 c128 139 243 263 255 278 l21 26 24 -29 c12 -17 30 -40 38 -53 8 -12 92
-124 185 -247 l170 -226 224 0 c177 0 221 3 214 13 -27 33 -467 622 -531 709
l-73 99 58 63 c75 80 420 452 455 491 l28 30 -62 3 c-59 3 -64 2 -93 -30 -65
-72 -283 -306 -337 -363 -31 -33 -68 -73 -82 -90 -14 -16 -27 -27 -29 -25 -2
3 -88 119 -192 258 l-189 252 -218 0 c-120 0 -218 -3 -218 -7z m675 -468 c154
-206 296 -397 315 -424 19 -27 95 -128 168 -224 72 -97 132 -181 132 -187 0
-7 -32 -10 -97 -8 l-98 3 -447 595 c-246 327 -450 601 -452 608 -4 9 19 12 97
12 l102 -1 280 -374z"/>
</g>
</svg>
