<svg width="33" height="37" viewBox="0 0 33 37" fill="none" xmlns="http://www.w3.org/2000/svg">
<path d="M7.49877 28.5668L11.4331 35.3817C12.2821 36.8538 14.1919 37.3989 15.7022 36.5258C17.1966 35.6621 17.7103 33.7526 16.8457 32.257L14.5019 28.1969L16.5317 27.025C16.9052 26.809 17.0334 26.3314 16.8176 25.9578L15.8017 24.1982C15.9228 24.1747 16.7194 24.0184 30.7657 21.263C32.5021 21.1687 33.5425 19.2696 32.6654 17.7513L30.069 13.2543L31.7282 10.7411C31.8912 10.494 31.9009 10.1763 31.7529 9.91992L30.1904 7.21362C30.0424 6.95728 29.7613 6.80713 29.4668 6.82452L26.4612 7.00488L23.5788 2.01221C23.1613 1.28894 22.4133 0.851013 21.5784 0.840637C21.5683 0.840332 21.5585 0.840332 21.5485 0.840332C20.7416 0.840332 20.0091 1.24194 19.5752 1.92096L9.3695 14.9221L2.73467 18.7526C0.12511 20.2587 -0.778821 23.6064 0.73302 26.223C2.11425 28.6156 5.02623 29.5568 7.49877 28.5668ZM15.4928 33.0385C15.9244 33.785 15.6689 34.7402 14.9203 35.1726C14.1693 35.6069 13.2129 35.3401 12.7862 34.6007L8.87999 27.834L11.5863 26.2715C16.1072 34.103 15.4202 32.9131 15.4928 33.0385ZM13.7207 26.8434L12.9394 25.4903L14.2926 24.709L15.0738 26.0622L13.7207 26.8434ZM29.0787 8.41296L30.1584 10.2831L29.1955 11.7412L27.3346 8.51764L29.0787 8.41296ZM20.8819 2.77759C21.0916 2.43457 21.4242 2.39917 21.5591 2.40283C21.6925 2.40436 22.0248 2.44586 22.2253 2.79315L31.3122 18.5326C31.6083 19.045 31.2485 19.6892 30.6549 19.7039C30.5484 19.7063 30.4993 19.7255 30.2264 19.7765L20.6143 3.12762C20.816 2.86823 20.842 2.8432 20.8819 2.77759ZM19.5746 4.45209L28.6056 20.0945L14.9759 22.7678L10.8316 15.5898L19.5746 4.45209ZM2.08617 25.4418C1.74315 24.8482 1.56188 24.1744 1.56188 23.4926C1.56188 22.0992 2.31078 20.8016 3.51592 20.1058L9.60509 16.5901L13.5113 23.3559L7.42217 26.8718C5.55663 27.9485 3.16313 27.307 2.08617 25.4418Z" fill="url(#paint0_linear_75_3704)"/>
<defs>
<linearGradient id="paint0_linear_75_3704" x1="16.4914" y1="0.840332" x2="16.4914" y2="36.9445" gradientUnits="userSpaceOnUse">
<stop stop-color="#788CEB"/>
<stop offset="1" stop-color="#8D5BFA"/>
</linearGradient>
</defs>
</svg>
